<mxfile host="app.diagrams.net" modified="2020-11-26T09:54:30.983Z" agent="5.0 (Windows NT 10.0; Win64; x64) AppleWebKit/537.36 (KHTML, like Gecko) Chrome/86.0.4240.111 Safari/537.36" etag="IR1-jUE3Bz-8QBBdEriz" version="13.10.1" type="github">
  <diagram id="IrrApcPLpuMDoiADuHIS" name="Page-1">
    <mxGraphModel dx="1038" dy="548" grid="1" gridSize="10" guides="1" tooltips="1" connect="1" arrows="1" fold="1" page="1" pageScale="1" pageWidth="827" pageHeight="1169" math="0" shadow="0">
      <root>
        <mxCell id="0" />
        <mxCell id="1" parent="0" />
        <mxCell id="z5GKgcLMGubuJOQgBD2h-2" value="" style="whiteSpace=wrap;html=1;aspect=fixed;" vertex="1" parent="1">
          <mxGeometry x="110" y="150" width="20" height="20" as="geometry" />
        </mxCell>
        <mxCell id="z5GKgcLMGubuJOQgBD2h-4" value="" style="whiteSpace=wrap;html=1;aspect=fixed;" vertex="1" parent="1">
          <mxGeometry x="130" y="150" width="20" height="20" as="geometry" />
        </mxCell>
        <mxCell id="z5GKgcLMGubuJOQgBD2h-5" value="" style="whiteSpace=wrap;html=1;aspect=fixed;" vertex="1" parent="1">
          <mxGeometry x="130" y="170" width="20" height="20" as="geometry" />
        </mxCell>
        <mxCell id="z5GKgcLMGubuJOQgBD2h-6" value="" style="whiteSpace=wrap;html=1;aspect=fixed;" vertex="1" parent="1">
          <mxGeometry x="90" y="150" width="20" height="20" as="geometry" />
        </mxCell>
        <mxCell id="z5GKgcLMGubuJOQgBD2h-7" value="" style="whiteSpace=wrap;html=1;aspect=fixed;" vertex="1" parent="1">
          <mxGeometry x="130" y="190" width="20" height="20" as="geometry" />
        </mxCell>
        <mxCell id="z5GKgcLMGubuJOQgBD2h-8" value="" style="whiteSpace=wrap;html=1;aspect=fixed;" vertex="1" parent="1">
          <mxGeometry x="90" y="190" width="20" height="20" as="geometry" />
        </mxCell>
        <mxCell id="z5GKgcLMGubuJOQgBD2h-9" value="" style="whiteSpace=wrap;html=1;aspect=fixed;" vertex="1" parent="1">
          <mxGeometry x="130" y="210" width="20" height="20" as="geometry" />
        </mxCell>
        <mxCell id="z5GKgcLMGubuJOQgBD2h-10" value="" style="whiteSpace=wrap;html=1;aspect=fixed;" vertex="1" parent="1">
          <mxGeometry x="90" y="210" width="20" height="20" as="geometry" />
        </mxCell>
        <mxCell id="z5GKgcLMGubuJOQgBD2h-11" value="" style="whiteSpace=wrap;html=1;aspect=fixed;" vertex="1" parent="1">
          <mxGeometry x="90" y="170" width="20" height="20" as="geometry" />
        </mxCell>
        <mxCell id="z5GKgcLMGubuJOQgBD2h-12" value="" style="whiteSpace=wrap;html=1;aspect=fixed;" vertex="1" parent="1">
          <mxGeometry x="110" y="170" width="20" height="20" as="geometry" />
        </mxCell>
        <mxCell id="z5GKgcLMGubuJOQgBD2h-13" value="" style="whiteSpace=wrap;html=1;aspect=fixed;" vertex="1" parent="1">
          <mxGeometry x="110" y="190" width="20" height="20" as="geometry" />
        </mxCell>
        <mxCell id="z5GKgcLMGubuJOQgBD2h-14" value="" style="whiteSpace=wrap;html=1;aspect=fixed;" vertex="1" parent="1">
          <mxGeometry x="110" y="210" width="20" height="20" as="geometry" />
        </mxCell>
        <mxCell id="z5GKgcLMGubuJOQgBD2h-42" value="" style="whiteSpace=wrap;html=1;aspect=fixed;" vertex="1" parent="1">
          <mxGeometry x="90" y="230" width="20" height="20" as="geometry" />
        </mxCell>
        <mxCell id="z5GKgcLMGubuJOQgBD2h-43" value="" style="whiteSpace=wrap;html=1;aspect=fixed;" vertex="1" parent="1">
          <mxGeometry x="110" y="230" width="20" height="20" as="geometry" />
        </mxCell>
        <mxCell id="z5GKgcLMGubuJOQgBD2h-44" value="" style="whiteSpace=wrap;html=1;aspect=fixed;" vertex="1" parent="1">
          <mxGeometry x="130" y="230" width="20" height="20" as="geometry" />
        </mxCell>
        <mxCell id="z5GKgcLMGubuJOQgBD2h-45" value="" style="whiteSpace=wrap;html=1;aspect=fixed;" vertex="1" parent="1">
          <mxGeometry x="130" y="250" width="20" height="20" as="geometry" />
        </mxCell>
        <mxCell id="z5GKgcLMGubuJOQgBD2h-46" value="" style="whiteSpace=wrap;html=1;aspect=fixed;" vertex="1" parent="1">
          <mxGeometry x="110" y="250" width="20" height="20" as="geometry" />
        </mxCell>
        <mxCell id="z5GKgcLMGubuJOQgBD2h-47" value="" style="whiteSpace=wrap;html=1;aspect=fixed;" vertex="1" parent="1">
          <mxGeometry x="90" y="250" width="20" height="20" as="geometry" />
        </mxCell>
        <mxCell id="z5GKgcLMGubuJOQgBD2h-48" value="" style="whiteSpace=wrap;html=1;aspect=fixed;" vertex="1" parent="1">
          <mxGeometry x="130" y="270" width="20" height="20" as="geometry" />
        </mxCell>
        <mxCell id="z5GKgcLMGubuJOQgBD2h-49" value="" style="whiteSpace=wrap;html=1;aspect=fixed;" vertex="1" parent="1">
          <mxGeometry x="110" y="270" width="20" height="20" as="geometry" />
        </mxCell>
        <mxCell id="z5GKgcLMGubuJOQgBD2h-50" value="" style="whiteSpace=wrap;html=1;aspect=fixed;" vertex="1" parent="1">
          <mxGeometry x="90" y="270" width="20" height="20" as="geometry" />
        </mxCell>
        <mxCell id="z5GKgcLMGubuJOQgBD2h-59" value="4" style="text;html=1;strokeColor=none;fillColor=none;align=center;verticalAlign=middle;whiteSpace=wrap;rounded=0;" vertex="1" parent="1">
          <mxGeometry x="39" y="150" width="40" height="20" as="geometry" />
        </mxCell>
        <mxCell id="z5GKgcLMGubuJOQgBD2h-60" value="名" style="text;html=1;strokeColor=none;fillColor=none;align=center;verticalAlign=middle;whiteSpace=wrap;rounded=0;" vertex="1" parent="1">
          <mxGeometry x="39" y="170" width="40" height="20" as="geometry" />
        </mxCell>
        <mxCell id="z5GKgcLMGubuJOQgBD2h-61" value="电焊工" style="text;html=1;strokeColor=none;fillColor=none;align=center;verticalAlign=middle;whiteSpace=wrap;rounded=0;" vertex="1" parent="1">
          <mxGeometry x="39" y="190" width="40" height="20" as="geometry" />
        </mxCell>
        <mxCell id="z5GKgcLMGubuJOQgBD2h-62" value="被" style="text;html=1;strokeColor=none;fillColor=none;align=center;verticalAlign=middle;whiteSpace=wrap;rounded=0;" vertex="1" parent="1">
          <mxGeometry x="39" y="210" width="40" height="20" as="geometry" />
        </mxCell>
        <mxCell id="z5GKgcLMGubuJOQgBD2h-63" value="公安" style="text;html=1;strokeColor=none;fillColor=none;align=center;verticalAlign=middle;whiteSpace=wrap;rounded=0;" vertex="1" parent="1">
          <mxGeometry x="39" y="230" width="40" height="20" as="geometry" />
        </mxCell>
        <mxCell id="z5GKgcLMGubuJOQgBD2h-64" value="机关" style="text;html=1;strokeColor=none;fillColor=none;align=center;verticalAlign=middle;whiteSpace=wrap;rounded=0;" vertex="1" parent="1">
          <mxGeometry x="39" y="250" width="40" height="20" as="geometry" />
        </mxCell>
        <mxCell id="z5GKgcLMGubuJOQgBD2h-65" value="全部" style="text;html=1;strokeColor=none;fillColor=none;align=center;verticalAlign=middle;whiteSpace=wrap;rounded=0;" vertex="1" parent="1">
          <mxGeometry x="39" y="270" width="40" height="20" as="geometry" />
        </mxCell>
        <mxCell id="z5GKgcLMGubuJOQgBD2h-66" value="" style="whiteSpace=wrap;html=1;aspect=fixed;fillColor=#0000FF;" vertex="1" parent="1">
          <mxGeometry x="90" y="290" width="20" height="20" as="geometry" />
        </mxCell>
        <mxCell id="z5GKgcLMGubuJOQgBD2h-67" value="" style="whiteSpace=wrap;html=1;aspect=fixed;fillColor=#0000FF;" vertex="1" parent="1">
          <mxGeometry x="110" y="290" width="20" height="20" as="geometry" />
        </mxCell>
        <mxCell id="z5GKgcLMGubuJOQgBD2h-68" value="" style="whiteSpace=wrap;html=1;aspect=fixed;fillColor=#0000FF;" vertex="1" parent="1">
          <mxGeometry x="130" y="290" width="20" height="20" as="geometry" />
        </mxCell>
        <mxCell id="z5GKgcLMGubuJOQgBD2h-69" value="" style="whiteSpace=wrap;html=1;aspect=fixed;" vertex="1" parent="1">
          <mxGeometry x="90" y="310" width="20" height="20" as="geometry" />
        </mxCell>
        <mxCell id="z5GKgcLMGubuJOQgBD2h-70" value="" style="whiteSpace=wrap;html=1;aspect=fixed;" vertex="1" parent="1">
          <mxGeometry x="110" y="310" width="20" height="20" as="geometry" />
        </mxCell>
        <mxCell id="z5GKgcLMGubuJOQgBD2h-71" value="" style="whiteSpace=wrap;html=1;aspect=fixed;" vertex="1" parent="1">
          <mxGeometry x="130" y="310" width="20" height="20" as="geometry" />
        </mxCell>
        <mxCell id="z5GKgcLMGubuJOQgBD2h-72" value="抓获" style="text;html=1;strokeColor=none;fillColor=none;align=center;verticalAlign=middle;whiteSpace=wrap;rounded=0;" vertex="1" parent="1">
          <mxGeometry x="39" y="290" width="40" height="20" as="geometry" />
        </mxCell>
        <mxCell id="z5GKgcLMGubuJOQgBD2h-73" value="，" style="text;html=1;strokeColor=none;fillColor=none;align=center;verticalAlign=middle;whiteSpace=wrap;rounded=0;" vertex="1" parent="1">
          <mxGeometry x="39" y="310" width="40" height="20" as="geometry" />
        </mxCell>
        <mxCell id="z5GKgcLMGubuJOQgBD2h-76" value="" style="endArrow=none;html=1;" edge="1" parent="1">
          <mxGeometry width="50" height="50" relative="1" as="geometry">
            <mxPoint x="30" y="350" as="sourcePoint" />
            <mxPoint x="159" y="350" as="targetPoint" />
            <Array as="points">
              <mxPoint x="119" y="350" />
            </Array>
          </mxGeometry>
        </mxCell>
        <mxCell id="z5GKgcLMGubuJOQgBD2h-78" value="" style="endArrow=none;html=1;" edge="1" parent="1">
          <mxGeometry width="50" height="50" relative="1" as="geometry">
            <mxPoint x="30" y="350" as="sourcePoint" />
            <mxPoint x="30" y="340" as="targetPoint" />
          </mxGeometry>
        </mxCell>
        <mxCell id="z5GKgcLMGubuJOQgBD2h-79" value="" style="endArrow=none;html=1;" edge="1" parent="1">
          <mxGeometry width="50" height="50" relative="1" as="geometry">
            <mxPoint x="160" y="350" as="sourcePoint" />
            <mxPoint x="160" y="340" as="targetPoint" />
          </mxGeometry>
        </mxCell>
        <mxCell id="z5GKgcLMGubuJOQgBD2h-80" value="Embedding Learning" style="text;html=1;strokeColor=none;fillColor=none;align=center;verticalAlign=middle;whiteSpace=wrap;rounded=0;" vertex="1" parent="1">
          <mxGeometry x="30" y="360" width="130" height="20" as="geometry" />
        </mxCell>
        <mxCell id="z5GKgcLMGubuJOQgBD2h-108" value="" style="endArrow=none;dashed=1;html=1;exitX=1;exitY=0.5;exitDx=0;exitDy=0;" edge="1" parent="1" source="z5GKgcLMGubuJOQgBD2h-44">
          <mxGeometry width="50" height="50" relative="1" as="geometry">
            <mxPoint x="350" y="360" as="sourcePoint" />
            <mxPoint x="200" y="240" as="targetPoint" />
          </mxGeometry>
        </mxCell>
        <mxCell id="z5GKgcLMGubuJOQgBD2h-123" value="" style="shape=table;html=1;whiteSpace=wrap;startSize=0;container=1;collapsible=0;childLayout=tableLayout;" vertex="1" parent="1">
          <mxGeometry x="250" y="118" width="80" height="180" as="geometry" />
        </mxCell>
        <mxCell id="z5GKgcLMGubuJOQgBD2h-124" value="" style="shape=partialRectangle;html=1;whiteSpace=wrap;collapsible=0;dropTarget=0;pointerEvents=0;fillColor=none;top=0;left=0;bottom=0;right=0;points=[[0,0.5],[1,0.5]];portConstraint=eastwest;" vertex="1" parent="z5GKgcLMGubuJOQgBD2h-123">
          <mxGeometry width="80" height="20" as="geometry" />
        </mxCell>
        <mxCell id="z5GKgcLMGubuJOQgBD2h-125" value="" style="shape=partialRectangle;html=1;whiteSpace=wrap;connectable=0;overflow=hidden;fillColor=none;top=0;left=0;bottom=0;right=0;" vertex="1" parent="z5GKgcLMGubuJOQgBD2h-124">
          <mxGeometry width="20" height="20" as="geometry" />
        </mxCell>
        <mxCell id="z5GKgcLMGubuJOQgBD2h-126" value="" style="shape=partialRectangle;html=1;whiteSpace=wrap;connectable=0;overflow=hidden;fillColor=none;top=0;left=0;bottom=0;right=0;" vertex="1" parent="z5GKgcLMGubuJOQgBD2h-124">
          <mxGeometry x="20" width="20" height="20" as="geometry" />
        </mxCell>
        <mxCell id="z5GKgcLMGubuJOQgBD2h-127" value="" style="shape=partialRectangle;html=1;whiteSpace=wrap;connectable=0;overflow=hidden;fillColor=none;top=0;left=0;bottom=0;right=0;" vertex="1" parent="z5GKgcLMGubuJOQgBD2h-124">
          <mxGeometry x="40" width="20" height="20" as="geometry" />
        </mxCell>
        <mxCell id="z5GKgcLMGubuJOQgBD2h-128" value="" style="shape=partialRectangle;html=1;whiteSpace=wrap;connectable=0;overflow=hidden;fillColor=none;top=0;left=0;bottom=0;right=0;" vertex="1" parent="z5GKgcLMGubuJOQgBD2h-124">
          <mxGeometry x="60" width="20" height="20" as="geometry" />
        </mxCell>
        <mxCell id="z5GKgcLMGubuJOQgBD2h-129" value="" style="shape=partialRectangle;html=1;whiteSpace=wrap;collapsible=0;dropTarget=0;pointerEvents=0;fillColor=none;top=0;left=0;bottom=0;right=0;points=[[0,0.5],[1,0.5]];portConstraint=eastwest;" vertex="1" parent="z5GKgcLMGubuJOQgBD2h-123">
          <mxGeometry y="20" width="80" height="21" as="geometry" />
        </mxCell>
        <mxCell id="z5GKgcLMGubuJOQgBD2h-130" value="" style="shape=partialRectangle;html=1;whiteSpace=wrap;connectable=0;overflow=hidden;fillColor=none;top=0;left=0;bottom=0;right=0;" vertex="1" parent="z5GKgcLMGubuJOQgBD2h-129">
          <mxGeometry width="20" height="21" as="geometry" />
        </mxCell>
        <mxCell id="z5GKgcLMGubuJOQgBD2h-131" value="" style="shape=partialRectangle;html=1;whiteSpace=wrap;connectable=0;overflow=hidden;fillColor=none;top=0;left=0;bottom=0;right=0;" vertex="1" parent="z5GKgcLMGubuJOQgBD2h-129">
          <mxGeometry x="20" width="20" height="21" as="geometry" />
        </mxCell>
        <mxCell id="z5GKgcLMGubuJOQgBD2h-132" value="" style="shape=partialRectangle;html=1;whiteSpace=wrap;connectable=0;overflow=hidden;fillColor=none;top=0;left=0;bottom=0;right=0;" vertex="1" parent="z5GKgcLMGubuJOQgBD2h-129">
          <mxGeometry x="40" width="20" height="21" as="geometry" />
        </mxCell>
        <mxCell id="z5GKgcLMGubuJOQgBD2h-133" value="" style="shape=partialRectangle;html=1;whiteSpace=wrap;connectable=0;overflow=hidden;fillColor=none;top=0;left=0;bottom=0;right=0;" vertex="1" parent="z5GKgcLMGubuJOQgBD2h-129">
          <mxGeometry x="60" width="20" height="21" as="geometry" />
        </mxCell>
        <mxCell id="z5GKgcLMGubuJOQgBD2h-134" value="" style="shape=partialRectangle;html=1;whiteSpace=wrap;collapsible=0;dropTarget=0;pointerEvents=0;fillColor=none;top=0;left=0;bottom=0;right=0;points=[[0,0.5],[1,0.5]];portConstraint=eastwest;" vertex="1" parent="z5GKgcLMGubuJOQgBD2h-123">
          <mxGeometry y="41" width="80" height="18" as="geometry" />
        </mxCell>
        <mxCell id="z5GKgcLMGubuJOQgBD2h-135" value="" style="shape=partialRectangle;html=1;whiteSpace=wrap;connectable=0;overflow=hidden;fillColor=none;top=0;left=0;bottom=0;right=0;" vertex="1" parent="z5GKgcLMGubuJOQgBD2h-134">
          <mxGeometry width="20" height="18" as="geometry" />
        </mxCell>
        <mxCell id="z5GKgcLMGubuJOQgBD2h-136" value="" style="shape=partialRectangle;html=1;whiteSpace=wrap;connectable=0;overflow=hidden;fillColor=none;top=0;left=0;bottom=0;right=0;" vertex="1" parent="z5GKgcLMGubuJOQgBD2h-134">
          <mxGeometry x="20" width="20" height="18" as="geometry" />
        </mxCell>
        <mxCell id="z5GKgcLMGubuJOQgBD2h-137" value="" style="shape=partialRectangle;html=1;whiteSpace=wrap;connectable=0;overflow=hidden;fillColor=none;top=0;left=0;bottom=0;right=0;" vertex="1" parent="z5GKgcLMGubuJOQgBD2h-134">
          <mxGeometry x="40" width="20" height="18" as="geometry" />
        </mxCell>
        <mxCell id="z5GKgcLMGubuJOQgBD2h-138" value="" style="shape=partialRectangle;html=1;whiteSpace=wrap;connectable=0;overflow=hidden;fillColor=none;top=0;left=0;bottom=0;right=0;" vertex="1" parent="z5GKgcLMGubuJOQgBD2h-134">
          <mxGeometry x="60" width="20" height="18" as="geometry" />
        </mxCell>
        <mxCell id="z5GKgcLMGubuJOQgBD2h-139" value="" style="shape=partialRectangle;html=1;whiteSpace=wrap;collapsible=0;dropTarget=0;pointerEvents=0;fillColor=none;top=0;left=0;bottom=0;right=0;points=[[0,0.5],[1,0.5]];portConstraint=eastwest;" vertex="1" parent="z5GKgcLMGubuJOQgBD2h-123">
          <mxGeometry y="59" width="80" height="21" as="geometry" />
        </mxCell>
        <mxCell id="z5GKgcLMGubuJOQgBD2h-140" value="" style="shape=partialRectangle;html=1;whiteSpace=wrap;connectable=0;overflow=hidden;fillColor=none;top=0;left=0;bottom=0;right=0;" vertex="1" parent="z5GKgcLMGubuJOQgBD2h-139">
          <mxGeometry width="20" height="21" as="geometry" />
        </mxCell>
        <mxCell id="z5GKgcLMGubuJOQgBD2h-141" value="" style="shape=partialRectangle;html=1;whiteSpace=wrap;connectable=0;overflow=hidden;fillColor=none;top=0;left=0;bottom=0;right=0;" vertex="1" parent="z5GKgcLMGubuJOQgBD2h-139">
          <mxGeometry x="20" width="20" height="21" as="geometry" />
        </mxCell>
        <mxCell id="z5GKgcLMGubuJOQgBD2h-142" value="" style="shape=partialRectangle;html=1;whiteSpace=wrap;connectable=0;overflow=hidden;fillColor=none;top=0;left=0;bottom=0;right=0;" vertex="1" parent="z5GKgcLMGubuJOQgBD2h-139">
          <mxGeometry x="40" width="20" height="21" as="geometry" />
        </mxCell>
        <mxCell id="z5GKgcLMGubuJOQgBD2h-143" value="" style="shape=partialRectangle;html=1;whiteSpace=wrap;connectable=0;overflow=hidden;fillColor=none;top=0;left=0;bottom=0;right=0;" vertex="1" parent="z5GKgcLMGubuJOQgBD2h-139">
          <mxGeometry x="60" width="20" height="21" as="geometry" />
        </mxCell>
        <mxCell id="z5GKgcLMGubuJOQgBD2h-144" value="" style="shape=partialRectangle;html=1;whiteSpace=wrap;collapsible=0;dropTarget=0;pointerEvents=0;fillColor=none;top=0;left=0;bottom=0;right=0;points=[[0,0.5],[1,0.5]];portConstraint=eastwest;" vertex="1" parent="z5GKgcLMGubuJOQgBD2h-123">
          <mxGeometry y="80" width="80" height="20" as="geometry" />
        </mxCell>
        <mxCell id="z5GKgcLMGubuJOQgBD2h-145" value="" style="shape=partialRectangle;html=1;whiteSpace=wrap;connectable=0;overflow=hidden;fillColor=none;top=0;left=0;bottom=0;right=0;" vertex="1" parent="z5GKgcLMGubuJOQgBD2h-144">
          <mxGeometry width="20" height="20" as="geometry" />
        </mxCell>
        <mxCell id="z5GKgcLMGubuJOQgBD2h-146" value="" style="shape=partialRectangle;html=1;whiteSpace=wrap;connectable=0;overflow=hidden;fillColor=none;top=0;left=0;bottom=0;right=0;" vertex="1" parent="z5GKgcLMGubuJOQgBD2h-144">
          <mxGeometry x="20" width="20" height="20" as="geometry" />
        </mxCell>
        <mxCell id="z5GKgcLMGubuJOQgBD2h-147" value="" style="shape=partialRectangle;html=1;whiteSpace=wrap;connectable=0;overflow=hidden;fillColor=none;top=0;left=0;bottom=0;right=0;" vertex="1" parent="z5GKgcLMGubuJOQgBD2h-144">
          <mxGeometry x="40" width="20" height="20" as="geometry" />
        </mxCell>
        <mxCell id="z5GKgcLMGubuJOQgBD2h-148" value="" style="shape=partialRectangle;html=1;whiteSpace=wrap;connectable=0;overflow=hidden;fillColor=none;top=0;left=0;bottom=0;right=0;" vertex="1" parent="z5GKgcLMGubuJOQgBD2h-144">
          <mxGeometry x="60" width="20" height="20" as="geometry" />
        </mxCell>
        <mxCell id="z5GKgcLMGubuJOQgBD2h-149" value="" style="shape=partialRectangle;html=1;whiteSpace=wrap;collapsible=0;dropTarget=0;pointerEvents=0;fillColor=none;top=0;left=0;bottom=0;right=0;points=[[0,0.5],[1,0.5]];portConstraint=eastwest;" vertex="1" parent="z5GKgcLMGubuJOQgBD2h-123">
          <mxGeometry y="100" width="80" height="21" as="geometry" />
        </mxCell>
        <mxCell id="z5GKgcLMGubuJOQgBD2h-150" value="" style="shape=partialRectangle;html=1;whiteSpace=wrap;connectable=0;overflow=hidden;fillColor=none;top=0;left=0;bottom=0;right=0;" vertex="1" parent="z5GKgcLMGubuJOQgBD2h-149">
          <mxGeometry width="20" height="21" as="geometry" />
        </mxCell>
        <mxCell id="z5GKgcLMGubuJOQgBD2h-151" value="" style="shape=partialRectangle;html=1;whiteSpace=wrap;connectable=0;overflow=hidden;fillColor=none;top=0;left=0;bottom=0;right=0;" vertex="1" parent="z5GKgcLMGubuJOQgBD2h-149">
          <mxGeometry x="20" width="20" height="21" as="geometry" />
        </mxCell>
        <mxCell id="z5GKgcLMGubuJOQgBD2h-152" value="" style="shape=partialRectangle;html=1;whiteSpace=wrap;connectable=0;overflow=hidden;fillColor=none;top=0;left=0;bottom=0;right=0;" vertex="1" parent="z5GKgcLMGubuJOQgBD2h-149">
          <mxGeometry x="40" width="20" height="21" as="geometry" />
        </mxCell>
        <mxCell id="z5GKgcLMGubuJOQgBD2h-153" value="" style="shape=partialRectangle;html=1;whiteSpace=wrap;connectable=0;overflow=hidden;fillColor=none;top=0;left=0;bottom=0;right=0;" vertex="1" parent="z5GKgcLMGubuJOQgBD2h-149">
          <mxGeometry x="60" width="20" height="21" as="geometry" />
        </mxCell>
        <mxCell id="z5GKgcLMGubuJOQgBD2h-154" value="" style="shape=partialRectangle;html=1;whiteSpace=wrap;collapsible=0;dropTarget=0;pointerEvents=0;fillColor=none;top=0;left=0;bottom=0;right=0;points=[[0,0.5],[1,0.5]];portConstraint=eastwest;" vertex="1" parent="z5GKgcLMGubuJOQgBD2h-123">
          <mxGeometry y="121" width="80" height="19" as="geometry" />
        </mxCell>
        <mxCell id="z5GKgcLMGubuJOQgBD2h-155" value="" style="shape=partialRectangle;html=1;whiteSpace=wrap;connectable=0;overflow=hidden;fillColor=none;top=0;left=0;bottom=0;right=0;" vertex="1" parent="z5GKgcLMGubuJOQgBD2h-154">
          <mxGeometry width="20" height="19" as="geometry" />
        </mxCell>
        <mxCell id="z5GKgcLMGubuJOQgBD2h-156" value="" style="shape=partialRectangle;html=1;whiteSpace=wrap;connectable=0;overflow=hidden;fillColor=none;top=0;left=0;bottom=0;right=0;" vertex="1" parent="z5GKgcLMGubuJOQgBD2h-154">
          <mxGeometry x="20" width="20" height="19" as="geometry" />
        </mxCell>
        <mxCell id="z5GKgcLMGubuJOQgBD2h-157" value="" style="shape=partialRectangle;html=1;whiteSpace=wrap;connectable=0;overflow=hidden;fillColor=none;top=0;left=0;bottom=0;right=0;" vertex="1" parent="z5GKgcLMGubuJOQgBD2h-154">
          <mxGeometry x="40" width="20" height="19" as="geometry" />
        </mxCell>
        <mxCell id="z5GKgcLMGubuJOQgBD2h-158" value="" style="shape=partialRectangle;html=1;whiteSpace=wrap;connectable=0;overflow=hidden;fillColor=none;top=0;left=0;bottom=0;right=0;" vertex="1" parent="z5GKgcLMGubuJOQgBD2h-154">
          <mxGeometry x="60" width="20" height="19" as="geometry" />
        </mxCell>
        <mxCell id="z5GKgcLMGubuJOQgBD2h-159" value="" style="shape=partialRectangle;html=1;whiteSpace=wrap;collapsible=0;dropTarget=0;pointerEvents=0;fillColor=none;top=0;left=0;bottom=0;right=0;points=[[0,0.5],[1,0.5]];portConstraint=eastwest;" vertex="1" parent="z5GKgcLMGubuJOQgBD2h-123">
          <mxGeometry y="140" width="80" height="20" as="geometry" />
        </mxCell>
        <mxCell id="z5GKgcLMGubuJOQgBD2h-160" value="" style="shape=partialRectangle;html=1;whiteSpace=wrap;connectable=0;overflow=hidden;fillColor=#0000FF;top=0;left=0;bottom=0;right=0;" vertex="1" parent="z5GKgcLMGubuJOQgBD2h-159">
          <mxGeometry width="20" height="20" as="geometry" />
        </mxCell>
        <mxCell id="z5GKgcLMGubuJOQgBD2h-161" value="" style="shape=partialRectangle;html=1;whiteSpace=wrap;connectable=0;overflow=hidden;fillColor=#0000FF;top=0;left=0;bottom=0;right=0;" vertex="1" parent="z5GKgcLMGubuJOQgBD2h-159">
          <mxGeometry x="20" width="20" height="20" as="geometry" />
        </mxCell>
        <mxCell id="z5GKgcLMGubuJOQgBD2h-162" value="" style="shape=partialRectangle;html=1;whiteSpace=wrap;connectable=0;overflow=hidden;fillColor=#0000FF;top=0;left=0;bottom=0;right=0;" vertex="1" parent="z5GKgcLMGubuJOQgBD2h-159">
          <mxGeometry x="40" width="20" height="20" as="geometry" />
        </mxCell>
        <mxCell id="z5GKgcLMGubuJOQgBD2h-163" value="" style="shape=partialRectangle;html=1;whiteSpace=wrap;connectable=0;overflow=hidden;fillColor=#0000FF;top=0;left=0;bottom=0;right=0;" vertex="1" parent="z5GKgcLMGubuJOQgBD2h-159">
          <mxGeometry x="60" width="20" height="20" as="geometry" />
        </mxCell>
        <mxCell id="z5GKgcLMGubuJOQgBD2h-164" value="" style="shape=partialRectangle;html=1;whiteSpace=wrap;collapsible=0;dropTarget=0;pointerEvents=0;fillColor=none;top=0;left=0;bottom=0;right=0;points=[[0,0.5],[1,0.5]];portConstraint=eastwest;" vertex="1" parent="z5GKgcLMGubuJOQgBD2h-123">
          <mxGeometry y="160" width="80" height="20" as="geometry" />
        </mxCell>
        <mxCell id="z5GKgcLMGubuJOQgBD2h-165" value="" style="shape=partialRectangle;html=1;whiteSpace=wrap;connectable=0;overflow=hidden;fillColor=none;top=0;left=0;bottom=0;right=0;" vertex="1" parent="z5GKgcLMGubuJOQgBD2h-164">
          <mxGeometry width="20" height="20" as="geometry" />
        </mxCell>
        <mxCell id="z5GKgcLMGubuJOQgBD2h-166" value="" style="shape=partialRectangle;html=1;whiteSpace=wrap;connectable=0;overflow=hidden;fillColor=none;top=0;left=0;bottom=0;right=0;" vertex="1" parent="z5GKgcLMGubuJOQgBD2h-164">
          <mxGeometry x="20" width="20" height="20" as="geometry" />
        </mxCell>
        <mxCell id="z5GKgcLMGubuJOQgBD2h-167" value="" style="shape=partialRectangle;html=1;whiteSpace=wrap;connectable=0;overflow=hidden;fillColor=none;top=0;left=0;bottom=0;right=0;" vertex="1" parent="z5GKgcLMGubuJOQgBD2h-164">
          <mxGeometry x="40" width="20" height="20" as="geometry" />
        </mxCell>
        <mxCell id="z5GKgcLMGubuJOQgBD2h-168" value="" style="shape=partialRectangle;html=1;whiteSpace=wrap;connectable=0;overflow=hidden;fillColor=none;top=0;left=0;bottom=0;right=0;" vertex="1" parent="z5GKgcLMGubuJOQgBD2h-164">
          <mxGeometry x="60" width="20" height="20" as="geometry" />
        </mxCell>
        <mxCell id="z5GKgcLMGubuJOQgBD2h-228" value="" style="endArrow=none;html=1;entryX=1.03;entryY=0.126;entryDx=0;entryDy=0;entryPerimeter=0;" edge="1" parent="z5GKgcLMGubuJOQgBD2h-123" target="z5GKgcLMGubuJOQgBD2h-154">
          <mxGeometry width="50" height="50" relative="1" as="geometry">
            <mxPoint x="82" y="182" as="sourcePoint" />
            <mxPoint x="150" y="192" as="targetPoint" />
            <Array as="points">
              <mxPoint x="110" y="152" />
            </Array>
          </mxGeometry>
        </mxCell>
        <mxCell id="z5GKgcLMGubuJOQgBD2h-240" value="" style="endArrow=none;html=1;entryX=1.04;entryY=0.2;entryDx=0;entryDy=0;entryPerimeter=0;" edge="1" parent="z5GKgcLMGubuJOQgBD2h-123" target="z5GKgcLMGubuJOQgBD2h-149">
          <mxGeometry width="50" height="50" relative="1" as="geometry">
            <mxPoint x="80" y="162" as="sourcePoint" />
            <mxPoint x="150" y="192" as="targetPoint" />
            <Array as="points">
              <mxPoint x="110" y="132" />
            </Array>
          </mxGeometry>
        </mxCell>
        <mxCell id="z5GKgcLMGubuJOQgBD2h-241" value="" style="endArrow=none;html=1;entryX=1.04;entryY=0.09;entryDx=0;entryDy=0;entryPerimeter=0;exitX=1;exitY=0.13;exitDx=0;exitDy=0;exitPerimeter=0;" edge="1" parent="z5GKgcLMGubuJOQgBD2h-123" source="z5GKgcLMGubuJOQgBD2h-159" target="z5GKgcLMGubuJOQgBD2h-144">
          <mxGeometry width="50" height="50" relative="1" as="geometry">
            <mxPoint x="93.20000000000005" y="165.39999999999998" as="sourcePoint" />
            <mxPoint x="93.20000000000005" y="114.20000000000005" as="targetPoint" />
            <Array as="points">
              <mxPoint x="110" y="112" />
            </Array>
          </mxGeometry>
        </mxCell>
        <mxCell id="z5GKgcLMGubuJOQgBD2h-214" value="" style="shape=table;html=1;whiteSpace=wrap;startSize=0;container=1;collapsible=0;childLayout=tableLayout;" vertex="1" parent="1">
          <mxGeometry x="250" y="337" width="200" height="20" as="geometry" />
        </mxCell>
        <mxCell id="z5GKgcLMGubuJOQgBD2h-215" value="" style="shape=partialRectangle;html=1;whiteSpace=wrap;collapsible=0;dropTarget=0;pointerEvents=0;fillColor=none;top=0;left=0;bottom=0;right=0;points=[[0,0.5],[1,0.5]];portConstraint=eastwest;" vertex="1" parent="z5GKgcLMGubuJOQgBD2h-214">
          <mxGeometry width="200" height="20" as="geometry" />
        </mxCell>
        <mxCell id="z5GKgcLMGubuJOQgBD2h-216" value="" style="shape=partialRectangle;html=1;whiteSpace=wrap;connectable=0;overflow=hidden;fillColor=none;top=0;left=0;bottom=0;right=0;" vertex="1" parent="z5GKgcLMGubuJOQgBD2h-215">
          <mxGeometry width="22" height="20" as="geometry" />
        </mxCell>
        <mxCell id="z5GKgcLMGubuJOQgBD2h-217" value="" style="shape=partialRectangle;html=1;whiteSpace=wrap;connectable=0;overflow=hidden;fillColor=none;top=0;left=0;bottom=0;right=0;" vertex="1" parent="z5GKgcLMGubuJOQgBD2h-215">
          <mxGeometry x="22" width="23" height="20" as="geometry" />
        </mxCell>
        <mxCell id="z5GKgcLMGubuJOQgBD2h-218" value="" style="shape=partialRectangle;html=1;whiteSpace=wrap;connectable=0;overflow=hidden;fillColor=none;top=0;left=0;bottom=0;right=0;" vertex="1" parent="z5GKgcLMGubuJOQgBD2h-215">
          <mxGeometry x="45" width="22" height="20" as="geometry" />
        </mxCell>
        <mxCell id="z5GKgcLMGubuJOQgBD2h-219" value="" style="shape=partialRectangle;html=1;whiteSpace=wrap;connectable=0;overflow=hidden;fillColor=#0000FF;top=0;left=0;bottom=0;right=0;" vertex="1" parent="z5GKgcLMGubuJOQgBD2h-215">
          <mxGeometry x="67" width="23" height="20" as="geometry" />
        </mxCell>
        <mxCell id="z5GKgcLMGubuJOQgBD2h-220" value="" style="shape=partialRectangle;html=1;whiteSpace=wrap;connectable=0;overflow=hidden;fillColor=#0000FF;top=0;left=0;bottom=0;right=0;" vertex="1" parent="z5GKgcLMGubuJOQgBD2h-215">
          <mxGeometry x="90" width="20" height="20" as="geometry" />
        </mxCell>
        <mxCell id="z5GKgcLMGubuJOQgBD2h-221" value="" style="shape=partialRectangle;html=1;whiteSpace=wrap;connectable=0;overflow=hidden;fillColor=#0000FF;top=0;left=0;bottom=0;right=0;" vertex="1" parent="z5GKgcLMGubuJOQgBD2h-215">
          <mxGeometry x="110" width="23" height="20" as="geometry" />
        </mxCell>
        <mxCell id="z5GKgcLMGubuJOQgBD2h-222" value="" style="shape=partialRectangle;html=1;whiteSpace=wrap;connectable=0;overflow=hidden;fillColor=none;top=0;left=0;bottom=0;right=0;" vertex="1" parent="z5GKgcLMGubuJOQgBD2h-215">
          <mxGeometry x="133" width="22" height="20" as="geometry" />
        </mxCell>
        <mxCell id="z5GKgcLMGubuJOQgBD2h-223" value="" style="shape=partialRectangle;html=1;whiteSpace=wrap;connectable=0;overflow=hidden;fillColor=none;top=0;left=0;bottom=0;right=0;" vertex="1" parent="z5GKgcLMGubuJOQgBD2h-215">
          <mxGeometry x="155" width="23" height="20" as="geometry" />
        </mxCell>
        <mxCell id="z5GKgcLMGubuJOQgBD2h-224" value="" style="shape=partialRectangle;html=1;whiteSpace=wrap;connectable=0;overflow=hidden;fillColor=none;top=0;left=0;bottom=0;right=0;" vertex="1" parent="z5GKgcLMGubuJOQgBD2h-215">
          <mxGeometry x="178" width="22" height="20" as="geometry" />
        </mxCell>
        <mxCell id="z5GKgcLMGubuJOQgBD2h-225" value="" style="endArrow=none;dashed=1;html=1;dashPattern=1 3;strokeWidth=2;" edge="1" parent="1">
          <mxGeometry width="50" height="50" relative="1" as="geometry">
            <mxPoint x="200" y="340" as="sourcePoint" />
            <mxPoint x="200" y="200" as="targetPoint" />
          </mxGeometry>
        </mxCell>
        <mxCell id="z5GKgcLMGubuJOQgBD2h-226" value="" style="endArrow=none;dashed=1;html=1;dashPattern=1 3;strokeWidth=2;" edge="1" parent="1">
          <mxGeometry width="50" height="50" relative="1" as="geometry">
            <mxPoint x="200" y="200" as="sourcePoint" />
            <mxPoint x="250" y="200" as="targetPoint" />
          </mxGeometry>
        </mxCell>
        <mxCell id="z5GKgcLMGubuJOQgBD2h-227" value="" style="endArrow=none;dashed=1;html=1;dashPattern=1 3;strokeWidth=2;entryX=0;entryY=0.5;entryDx=0;entryDy=0;" edge="1" parent="1" target="z5GKgcLMGubuJOQgBD2h-215">
          <mxGeometry width="50" height="50" relative="1" as="geometry">
            <mxPoint x="200" y="347" as="sourcePoint" />
            <mxPoint x="240" y="320" as="targetPoint" />
          </mxGeometry>
        </mxCell>
        <mxCell id="z5GKgcLMGubuJOQgBD2h-229" value="" style="shape=table;html=1;whiteSpace=wrap;startSize=0;container=1;collapsible=0;childLayout=tableLayout;" vertex="1" parent="1">
          <mxGeometry x="420" y="118" width="20" height="102" as="geometry" />
        </mxCell>
        <mxCell id="z5GKgcLMGubuJOQgBD2h-230" value="" style="shape=partialRectangle;html=1;whiteSpace=wrap;collapsible=0;dropTarget=0;pointerEvents=0;fillColor=none;top=0;left=0;bottom=0;right=0;points=[[0,0.5],[1,0.5]];portConstraint=eastwest;" vertex="1" parent="z5GKgcLMGubuJOQgBD2h-229">
          <mxGeometry width="20" height="20" as="geometry" />
        </mxCell>
        <mxCell id="z5GKgcLMGubuJOQgBD2h-231" value="" style="shape=partialRectangle;html=1;whiteSpace=wrap;connectable=0;overflow=hidden;fillColor=none;top=0;left=0;bottom=0;right=0;" vertex="1" parent="z5GKgcLMGubuJOQgBD2h-230">
          <mxGeometry width="20" height="20" as="geometry" />
        </mxCell>
        <mxCell id="z5GKgcLMGubuJOQgBD2h-232" value="" style="shape=partialRectangle;html=1;whiteSpace=wrap;collapsible=0;dropTarget=0;pointerEvents=0;fillColor=none;top=0;left=0;bottom=0;right=0;points=[[0,0.5],[1,0.5]];portConstraint=eastwest;" vertex="1" parent="z5GKgcLMGubuJOQgBD2h-229">
          <mxGeometry y="20" width="20" height="21" as="geometry" />
        </mxCell>
        <mxCell id="z5GKgcLMGubuJOQgBD2h-233" value="" style="shape=partialRectangle;html=1;whiteSpace=wrap;connectable=0;overflow=hidden;fillColor=none;top=0;left=0;bottom=0;right=0;" vertex="1" parent="z5GKgcLMGubuJOQgBD2h-232">
          <mxGeometry width="20" height="21" as="geometry" />
        </mxCell>
        <mxCell id="z5GKgcLMGubuJOQgBD2h-234" value="" style="shape=partialRectangle;html=1;whiteSpace=wrap;collapsible=0;dropTarget=0;pointerEvents=0;fillColor=none;top=0;left=0;bottom=0;right=0;points=[[0,0.5],[1,0.5]];portConstraint=eastwest;" vertex="1" parent="z5GKgcLMGubuJOQgBD2h-229">
          <mxGeometry y="41" width="20" height="20" as="geometry" />
        </mxCell>
        <mxCell id="z5GKgcLMGubuJOQgBD2h-235" value="" style="shape=partialRectangle;html=1;whiteSpace=wrap;connectable=0;overflow=hidden;fillColor=none;top=0;left=0;bottom=0;right=0;" vertex="1" parent="z5GKgcLMGubuJOQgBD2h-234">
          <mxGeometry width="20" height="20" as="geometry" />
        </mxCell>
        <mxCell id="z5GKgcLMGubuJOQgBD2h-236" value="" style="shape=partialRectangle;html=1;whiteSpace=wrap;collapsible=0;dropTarget=0;pointerEvents=0;fillColor=none;top=0;left=0;bottom=0;right=0;points=[[0,0.5],[1,0.5]];portConstraint=eastwest;" vertex="1" parent="z5GKgcLMGubuJOQgBD2h-229">
          <mxGeometry y="61" width="20" height="21" as="geometry" />
        </mxCell>
        <mxCell id="z5GKgcLMGubuJOQgBD2h-237" value="" style="shape=partialRectangle;html=1;whiteSpace=wrap;connectable=0;overflow=hidden;fillColor=none;top=0;left=0;bottom=0;right=0;" vertex="1" parent="z5GKgcLMGubuJOQgBD2h-236">
          <mxGeometry width="20" height="21" as="geometry" />
        </mxCell>
        <mxCell id="z5GKgcLMGubuJOQgBD2h-238" value="" style="shape=partialRectangle;html=1;whiteSpace=wrap;collapsible=0;dropTarget=0;pointerEvents=0;fillColor=none;top=0;left=0;bottom=0;right=0;points=[[0,0.5],[1,0.5]];portConstraint=eastwest;" vertex="1" parent="z5GKgcLMGubuJOQgBD2h-229">
          <mxGeometry y="82" width="20" height="20" as="geometry" />
        </mxCell>
        <mxCell id="z5GKgcLMGubuJOQgBD2h-239" value="" style="shape=partialRectangle;html=1;whiteSpace=wrap;connectable=0;overflow=hidden;fillColor=none;top=0;left=0;bottom=0;right=0;" vertex="1" parent="z5GKgcLMGubuJOQgBD2h-238">
          <mxGeometry width="20" height="20" as="geometry" />
        </mxCell>
        <mxCell id="z5GKgcLMGubuJOQgBD2h-242" value="" style="shape=table;html=1;whiteSpace=wrap;startSize=0;container=1;collapsible=0;childLayout=tableLayout;" vertex="1" parent="1">
          <mxGeometry x="430" y="148" width="20" height="102" as="geometry" />
        </mxCell>
        <mxCell id="z5GKgcLMGubuJOQgBD2h-243" value="" style="shape=partialRectangle;html=1;whiteSpace=wrap;collapsible=0;dropTarget=0;pointerEvents=0;fillColor=none;top=0;left=0;bottom=0;right=0;points=[[0,0.5],[1,0.5]];portConstraint=eastwest;" vertex="1" parent="z5GKgcLMGubuJOQgBD2h-242">
          <mxGeometry width="20" height="20" as="geometry" />
        </mxCell>
        <mxCell id="z5GKgcLMGubuJOQgBD2h-244" value="" style="shape=partialRectangle;html=1;whiteSpace=wrap;connectable=0;overflow=hidden;fillColor=none;top=0;left=0;bottom=0;right=0;" vertex="1" parent="z5GKgcLMGubuJOQgBD2h-243">
          <mxGeometry width="20" height="20" as="geometry" />
        </mxCell>
        <mxCell id="z5GKgcLMGubuJOQgBD2h-245" value="" style="shape=partialRectangle;html=1;whiteSpace=wrap;collapsible=0;dropTarget=0;pointerEvents=0;fillColor=none;top=0;left=0;bottom=0;right=0;points=[[0,0.5],[1,0.5]];portConstraint=eastwest;" vertex="1" parent="z5GKgcLMGubuJOQgBD2h-242">
          <mxGeometry y="20" width="20" height="21" as="geometry" />
        </mxCell>
        <mxCell id="z5GKgcLMGubuJOQgBD2h-246" value="" style="shape=partialRectangle;html=1;whiteSpace=wrap;connectable=0;overflow=hidden;fillColor=none;top=0;left=0;bottom=0;right=0;" vertex="1" parent="z5GKgcLMGubuJOQgBD2h-245">
          <mxGeometry width="20" height="21" as="geometry" />
        </mxCell>
        <mxCell id="z5GKgcLMGubuJOQgBD2h-247" value="" style="shape=partialRectangle;html=1;whiteSpace=wrap;collapsible=0;dropTarget=0;pointerEvents=0;fillColor=none;top=0;left=0;bottom=0;right=0;points=[[0,0.5],[1,0.5]];portConstraint=eastwest;" vertex="1" parent="z5GKgcLMGubuJOQgBD2h-242">
          <mxGeometry y="41" width="20" height="20" as="geometry" />
        </mxCell>
        <mxCell id="z5GKgcLMGubuJOQgBD2h-248" value="" style="shape=partialRectangle;html=1;whiteSpace=wrap;connectable=0;overflow=hidden;fillColor=none;top=0;left=0;bottom=0;right=0;" vertex="1" parent="z5GKgcLMGubuJOQgBD2h-247">
          <mxGeometry width="20" height="20" as="geometry" />
        </mxCell>
        <mxCell id="z5GKgcLMGubuJOQgBD2h-249" value="" style="shape=partialRectangle;html=1;whiteSpace=wrap;collapsible=0;dropTarget=0;pointerEvents=0;fillColor=none;top=0;left=0;bottom=0;right=0;points=[[0,0.5],[1,0.5]];portConstraint=eastwest;" vertex="1" parent="z5GKgcLMGubuJOQgBD2h-242">
          <mxGeometry y="61" width="20" height="21" as="geometry" />
        </mxCell>
        <mxCell id="z5GKgcLMGubuJOQgBD2h-250" value="" style="shape=partialRectangle;html=1;whiteSpace=wrap;connectable=0;overflow=hidden;fillColor=none;top=0;left=0;bottom=0;right=0;" vertex="1" parent="z5GKgcLMGubuJOQgBD2h-249">
          <mxGeometry width="20" height="21" as="geometry" />
        </mxCell>
        <mxCell id="z5GKgcLMGubuJOQgBD2h-251" value="" style="shape=partialRectangle;html=1;whiteSpace=wrap;collapsible=0;dropTarget=0;pointerEvents=0;fillColor=none;top=0;left=0;bottom=0;right=0;points=[[0,0.5],[1,0.5]];portConstraint=eastwest;" vertex="1" parent="z5GKgcLMGubuJOQgBD2h-242">
          <mxGeometry y="82" width="20" height="20" as="geometry" />
        </mxCell>
        <mxCell id="z5GKgcLMGubuJOQgBD2h-252" value="" style="shape=partialRectangle;html=1;whiteSpace=wrap;connectable=0;overflow=hidden;fillColor=none;top=0;left=0;bottom=0;right=0;" vertex="1" parent="z5GKgcLMGubuJOQgBD2h-251">
          <mxGeometry width="20" height="20" as="geometry" />
        </mxCell>
        <mxCell id="z5GKgcLMGubuJOQgBD2h-253" value="" style="shape=table;html=1;whiteSpace=wrap;startSize=0;container=1;collapsible=0;childLayout=tableLayout;" vertex="1" parent="1">
          <mxGeometry x="440" y="180" width="20" height="102" as="geometry" />
        </mxCell>
        <mxCell id="z5GKgcLMGubuJOQgBD2h-254" value="" style="shape=partialRectangle;html=1;whiteSpace=wrap;collapsible=0;dropTarget=0;pointerEvents=0;fillColor=none;top=0;left=0;bottom=0;right=0;points=[[0,0.5],[1,0.5]];portConstraint=eastwest;" vertex="1" parent="z5GKgcLMGubuJOQgBD2h-253">
          <mxGeometry width="20" height="20" as="geometry" />
        </mxCell>
        <mxCell id="z5GKgcLMGubuJOQgBD2h-255" value="" style="shape=partialRectangle;html=1;whiteSpace=wrap;connectable=0;overflow=hidden;fillColor=none;top=0;left=0;bottom=0;right=0;" vertex="1" parent="z5GKgcLMGubuJOQgBD2h-254">
          <mxGeometry width="20" height="20" as="geometry" />
        </mxCell>
        <mxCell id="z5GKgcLMGubuJOQgBD2h-256" value="" style="shape=partialRectangle;html=1;whiteSpace=wrap;collapsible=0;dropTarget=0;pointerEvents=0;fillColor=none;top=0;left=0;bottom=0;right=0;points=[[0,0.5],[1,0.5]];portConstraint=eastwest;" vertex="1" parent="z5GKgcLMGubuJOQgBD2h-253">
          <mxGeometry y="20" width="20" height="21" as="geometry" />
        </mxCell>
        <mxCell id="z5GKgcLMGubuJOQgBD2h-257" value="" style="shape=partialRectangle;html=1;whiteSpace=wrap;connectable=0;overflow=hidden;fillColor=none;top=0;left=0;bottom=0;right=0;" vertex="1" parent="z5GKgcLMGubuJOQgBD2h-256">
          <mxGeometry width="20" height="21" as="geometry" />
        </mxCell>
        <mxCell id="z5GKgcLMGubuJOQgBD2h-258" value="" style="shape=partialRectangle;html=1;whiteSpace=wrap;collapsible=0;dropTarget=0;pointerEvents=0;fillColor=none;top=0;left=0;bottom=0;right=0;points=[[0,0.5],[1,0.5]];portConstraint=eastwest;" vertex="1" parent="z5GKgcLMGubuJOQgBD2h-253">
          <mxGeometry y="41" width="20" height="20" as="geometry" />
        </mxCell>
        <mxCell id="z5GKgcLMGubuJOQgBD2h-259" value="" style="shape=partialRectangle;html=1;whiteSpace=wrap;connectable=0;overflow=hidden;fillColor=none;top=0;left=0;bottom=0;right=0;" vertex="1" parent="z5GKgcLMGubuJOQgBD2h-258">
          <mxGeometry width="20" height="20" as="geometry" />
        </mxCell>
        <mxCell id="z5GKgcLMGubuJOQgBD2h-260" value="" style="shape=partialRectangle;html=1;whiteSpace=wrap;collapsible=0;dropTarget=0;pointerEvents=0;fillColor=none;top=0;left=0;bottom=0;right=0;points=[[0,0.5],[1,0.5]];portConstraint=eastwest;" vertex="1" parent="z5GKgcLMGubuJOQgBD2h-253">
          <mxGeometry y="61" width="20" height="21" as="geometry" />
        </mxCell>
        <mxCell id="z5GKgcLMGubuJOQgBD2h-261" value="" style="shape=partialRectangle;html=1;whiteSpace=wrap;connectable=0;overflow=hidden;fillColor=none;top=0;left=0;bottom=0;right=0;" vertex="1" parent="z5GKgcLMGubuJOQgBD2h-260">
          <mxGeometry width="20" height="21" as="geometry" />
        </mxCell>
        <mxCell id="z5GKgcLMGubuJOQgBD2h-262" value="" style="shape=partialRectangle;html=1;whiteSpace=wrap;collapsible=0;dropTarget=0;pointerEvents=0;fillColor=none;top=0;left=0;bottom=0;right=0;points=[[0,0.5],[1,0.5]];portConstraint=eastwest;" vertex="1" parent="z5GKgcLMGubuJOQgBD2h-253">
          <mxGeometry y="82" width="20" height="20" as="geometry" />
        </mxCell>
        <mxCell id="z5GKgcLMGubuJOQgBD2h-263" value="" style="shape=partialRectangle;html=1;whiteSpace=wrap;connectable=0;overflow=hidden;fillColor=none;top=0;left=0;bottom=0;right=0;" vertex="1" parent="z5GKgcLMGubuJOQgBD2h-262">
          <mxGeometry width="20" height="20" as="geometry" />
        </mxCell>
        <mxCell id="z5GKgcLMGubuJOQgBD2h-264" value="" style="endArrow=classic;html=1;entryX=0;entryY=0.5;entryDx=0;entryDy=0;" edge="1" parent="1" target="z5GKgcLMGubuJOQgBD2h-234">
          <mxGeometry width="50" height="50" relative="1" as="geometry">
            <mxPoint x="360" y="230" as="sourcePoint" />
            <mxPoint x="400" y="310" as="targetPoint" />
          </mxGeometry>
        </mxCell>
        <mxCell id="z5GKgcLMGubuJOQgBD2h-265" value="" style="endArrow=classic;html=1;entryX=0;entryY=0.5;entryDx=0;entryDy=0;" edge="1" parent="1" target="z5GKgcLMGubuJOQgBD2h-236">
          <mxGeometry width="50" height="50" relative="1" as="geometry">
            <mxPoint x="360" y="250" as="sourcePoint" />
            <mxPoint x="400" y="310" as="targetPoint" />
          </mxGeometry>
        </mxCell>
        <mxCell id="z5GKgcLMGubuJOQgBD2h-266" value="" style="endArrow=classic;html=1;entryX=0;entryY=0.5;entryDx=0;entryDy=0;" edge="1" parent="1" target="z5GKgcLMGubuJOQgBD2h-238">
          <mxGeometry width="50" height="50" relative="1" as="geometry">
            <mxPoint x="360" y="270" as="sourcePoint" />
            <mxPoint x="400" y="310" as="targetPoint" />
          </mxGeometry>
        </mxCell>
        <mxCell id="z5GKgcLMGubuJOQgBD2h-267" value="" style="endArrow=classic;html=1;entryX=0;entryY=0.5;entryDx=0;entryDy=0;" edge="1" parent="1" target="z5GKgcLMGubuJOQgBD2h-251">
          <mxGeometry width="50" height="50" relative="1" as="geometry">
            <mxPoint x="360" y="270" as="sourcePoint" />
            <mxPoint x="400" y="310" as="targetPoint" />
          </mxGeometry>
        </mxCell>
        <mxCell id="z5GKgcLMGubuJOQgBD2h-268" value="" style="endArrow=classic;html=1;entryX=0;entryY=0.5;entryDx=0;entryDy=0;" edge="1" parent="1" target="z5GKgcLMGubuJOQgBD2h-262">
          <mxGeometry width="50" height="50" relative="1" as="geometry">
            <mxPoint x="360" y="272" as="sourcePoint" />
            <mxPoint x="400" y="310" as="targetPoint" />
          </mxGeometry>
        </mxCell>
      </root>
    </mxGraphModel>
  </diagram>
</mxfile>
